<svg width="760" height="799" viewBox="0 0 760 799" fill="none" xmlns="http://www.w3.org/2000/svg">
<path d="M758.011 644.732L707.468 422.749C682.852 313.419 665.375 234.459 642.278 181.518C617.211 124.063 585.129 98.331 538.236 98.331C534.134 98.331 530.606 98.331 526.954 98.8645C510.995 46.457 487.652 9.43557e-05 432.841 8.47723e-05L428.739 8.4055e-05C396.821 7.84743e-05 372.985 15.9646 354.195 50.1095L353.292 50.1095C334.503 15.9646 310.667 6.34106e-05 278.749 5.78299e-05L274.646 5.71126e-05C241.579 5.1331e-05 207.364 12.312 180.574 98.8645C176.964 98.5362 173.189 98.331 169.251 98.331C122.4 98.3309 90.3174 123.981 65.2097 181.477C42.1122 234.377 24.4711 313.337 0.0197625 422.585L-50.565 645.019C-50.8932 646.702 -58.483 686.059 -35.1393 709.656C-29.5598 716.018 38.7069 790.381 169.251 790.381C201.357 790.495 233.286 785.622 263.897 775.936C291.42 791.067 322.317 799 353.723 799C385.129 799 416.026 791.067 443.549 775.936C474.175 785.618 506.117 790.491 538.236 790.381C668.821 790.381 737.006 716.059 742.627 709.657C767.734 684.417 758.339 646.127 758.011 644.732ZM428.739 20.5199L432.841 20.5199C467.59 20.5199 488.144 43.0918 506.688 102.969C481.703 110.807 461.846 128.864 444.862 159.521C429.477 103.871 409.99 65.13 375.774 53.5568C390.133 30.5746 406.421 20.5199 428.739 20.5199ZM274.646 20.5198L278.749 20.5198C301.067 20.5199 317.354 30.5746 331.631 53.5568C297.415 65.0068 277.928 103.871 262.543 159.562C245.518 128.864 225.62 110.807 200.759 102.968C219.343 43.0917 239.897 20.5198 274.687 20.5198L274.646 20.5198ZM27.8762 733.008C10.2276 723.133 -5.85301 710.685 -19.8368 696.072L-20.4111 695.457C-36.206 679.821 -30.5034 649.451 -30.5034 649.41L19.2608 430.587L20.0403 427.14C67.384 215.458 89.0046 118.687 169.251 118.687C171.179 118.687 173.025 118.687 174.83 118.687C161.292 169.165 149.353 236.922 133.23 327.988L88.5943 576.975C62.1238 586.85 36.5409 598.96 12.1223 613.172C9.77208 614.544 8.06273 616.793 7.37028 619.425C6.67784 622.057 7.05901 624.857 8.42998 627.208C9.80095 629.559 12.0494 631.269 14.6807 631.962C17.312 632.654 20.1105 632.273 22.4608 630.901C65.9137 605.556 113.082 587.206 162.235 576.524C164.896 575.942 167.216 574.326 168.685 572.033C170.155 569.739 170.653 566.956 170.071 564.294C169.489 561.633 167.874 559.312 165.581 557.842C163.289 556.372 160.506 555.873 157.846 556.456C141.887 559.944 126.174 564.294 110.748 569.26L149.477 353.884L153.333 332.051C169.743 240.328 181.518 172.448 194.974 122.749C219.59 130.67 237.805 151.477 254.667 190.383C242.359 243.734 230.749 312.599 216.307 399.685L175.897 638.945L175.897 639.397C175.692 640.956 171.425 677.194 187.589 705.84C201.765 727.445 219.754 746.288 240.677 761.448C217.296 767.229 193.294 770.124 169.21 770.067C119.646 770.473 70.8672 757.683 27.8762 733.008ZM353.744 778.48C324.342 778.526 295.458 770.75 270.051 755.949C244.169 740.896 222.046 720.155 205.353 695.293C193.046 673.747 196 644.403 196.287 641.941L236.041 406.456L236.615 402.886C251.302 314.527 262.872 244.719 275.467 191.778C295.118 109.083 316.205 74.0765 348.328 70.9165C351.929 70.5471 355.558 70.5471 359.159 70.9165C391.282 74.0765 412.493 109.083 432.021 191.737C444.616 244.76 456.226 314.856 470.954 403.337L509.764 633.487C511.557 643.657 512.026 654.017 511.159 664.308C510.551 675.108 507.508 685.631 502.257 695.087C485.573 720.08 463.384 740.915 437.395 755.99C411.999 770.775 383.128 778.537 353.744 778.48ZM727.898 695.334L727.324 695.949C726.708 696.688 662.462 769.82 538.236 769.82C514.138 769.876 490.124 766.982 466.728 761.202C487.633 746.018 505.607 727.162 519.775 705.553C526.715 693.455 530.759 679.914 531.59 665.99C532.615 653.92 532.077 641.767 529.99 629.834L491.713 402.886L491.18 399.767C476.698 312.599 465.211 243.447 452.739 190.137C469.6 151.518 488.021 130.629 512.636 122.791C526.134 172.777 538.195 241.149 554.483 333.57L558.093 354.09L596.862 569.506C581.395 564.5 565.642 560.149 549.642 556.661C548.324 556.373 546.963 556.347 545.636 556.584C544.308 556.822 543.041 557.319 541.906 558.047C539.613 559.517 537.998 561.838 537.416 564.5C536.834 567.161 537.332 569.944 538.802 572.238C540.271 574.531 542.591 576.147 545.252 576.729C594.363 587.361 641.502 605.641 684.944 630.902C686.514 631.815 688.298 632.296 690.114 632.297C692.368 632.298 694.56 631.556 696.351 630.185C698.142 628.815 699.431 626.892 700.02 624.715C700.608 622.538 700.463 620.227 699.607 618.141C698.751 616.054 697.231 614.308 695.283 613.172C670.915 599.01 645.404 586.916 619.016 577.017L578.277 350.314L574.667 329.794C558.503 237.948 546.483 169.74 532.903 119.015C534.708 119.015 536.472 118.769 538.4 118.769C618.688 118.769 640.267 215.417 687.611 427.14L738.278 649.534C738.278 649.821 744.965 678.467 727.898 695.334Z" fill="url(#paint0_linear_16_6920)"/>
<path d="M453.19 538.316C439.224 534.165 424.96 531.091 410.523 529.123C403.344 528.056 395.59 527.195 387.467 526.538C379.344 525.881 371.056 525.471 362.851 525.307C361.579 525.307 360.308 525.307 359.036 525.307C357.764 525.307 356.246 525.307 354.933 525.307L352.636 525.307C341.846 525.307 330.851 525.758 320.102 526.62C312.185 527.236 304.431 528.097 297.087 529.164C282.573 531.092 268.227 534.124 254.174 538.234C251.568 539.023 249.382 540.816 248.098 543.217C246.813 545.618 246.534 548.432 247.323 551.038C248.112 553.645 249.903 555.832 252.304 557.117C254.704 558.403 257.517 558.681 260.123 557.892C273.113 554.052 286.375 551.198 299.795 549.356C306.728 548.371 314.031 547.55 321.497 546.976C331.754 546.114 342.01 545.703 352.431 545.703L354.851 545.703C356.041 545.703 357.19 545.703 358.338 545.703L359.323 545.703C360.308 545.703 361.292 545.703 362.564 545.703C370.318 545.703 378.154 546.278 385.826 546.894C393.498 547.509 400.759 548.289 407.569 549.315C420.979 551.138 434.229 553.992 447.2 557.851C448.174 558.131 449.182 558.269 450.195 558.262C452.647 558.248 455.013 557.357 456.865 555.749C458.716 554.141 459.93 551.923 460.288 549.496C460.645 547.07 460.121 544.596 458.811 542.522C457.502 540.448 455.493 538.913 453.149 538.193L453.19 538.316Z" fill="url(#paint1_linear_16_6920)"/>
<defs>
<linearGradient id="paint0_linear_16_6920" x1="23.7868" y1="64.7838" x2="817.445" y2="838.946" gradientUnits="userSpaceOnUse">
<stop stop-color="#00FFFF"/>
<stop offset="1" stop-color="#70FF00"/>
</linearGradient>
<linearGradient id="paint1_linear_16_6920" x1="23.7868" y1="64.7838" x2="817.445" y2="838.946" gradientUnits="userSpaceOnUse">
<stop stop-color="#00FFFF"/>
<stop offset="1" stop-color="#70FF00"/>
</linearGradient>
</defs>
</svg>
