<svg width="50" height="49" viewBox="0 0 50 49" fill="none" xmlns="http://www.w3.org/2000/svg">
<path d="M49.8787 39.6358L46.7976 26.1612C45.297 19.5248 44.2316 14.7319 42.8236 11.5183C41.2955 8.03071 39.3397 6.46877 36.4811 6.46877C36.2311 6.46877 36.016 6.46877 35.7934 6.50116C34.8205 3.31998 33.3975 0.5 30.0562 0.5H29.8061C27.8604 0.5 26.4073 1.46906 25.2619 3.54169H25.2069C24.0614 1.46906 22.6084 0.5 20.6626 0.5H20.4125C18.3968 0.5 16.311 1.24735 14.6778 6.50116C14.4578 6.48123 14.2277 6.46877 13.9876 6.46877C11.1315 6.46877 9.17575 8.02573 7.64517 11.5158C6.23713 14.7269 5.16172 19.5198 3.67115 26.1513L0.587477 39.6532C0.567469 39.7554 0.104794 42.1444 1.52784 43.5768C1.86797 43.9629 6.02955 48.4768 13.9876 48.4768C15.9448 48.4837 17.8912 48.1879 19.7573 47.6C21.4351 48.5184 23.3186 49 25.2331 49C27.1476 49 29.0311 48.5184 30.709 47.6C32.5759 48.1877 34.5231 48.4835 36.4811 48.4768C44.4417 48.4768 48.5983 43.9654 48.9409 43.5768C50.4715 42.0447 49.8988 39.7205 49.8787 39.6358ZM29.8061 1.74557H30.0562C32.1745 1.74557 33.4275 3.1157 34.5579 6.75027C33.0348 7.22608 31.8244 8.32218 30.789 10.1831C29.8511 6.80508 28.6632 4.45344 26.5774 3.75094C27.4527 2.3559 28.4456 1.74557 29.8061 1.74557ZM20.4125 1.74557H20.6626C22.0231 1.74557 23.016 2.3559 23.8864 3.75094C21.8006 4.44597 20.6126 6.80507 19.6747 10.1855C18.6369 8.32218 17.4239 7.22608 15.9083 6.75027C17.0412 3.1157 18.2942 1.74557 20.415 1.74557H20.4125ZM5.3693 44.9942C4.29343 44.3948 3.31315 43.6392 2.46069 42.7522L2.42568 42.7148C1.46281 41.7657 1.81044 39.9223 1.81044 39.9198L4.8441 26.637L4.89162 26.4278C7.77772 13.5785 9.09572 7.70438 13.9876 7.70438C14.1051 7.70438 14.2177 7.70438 14.3277 7.70438C13.5024 10.7685 12.7746 14.8813 11.7917 20.4092L9.07071 35.5229C7.45705 36.1223 5.89751 36.8574 4.40893 37.7201C4.26566 37.8033 4.16146 37.9399 4.11925 38.0997C4.07703 38.2594 4.10027 38.4294 4.18385 38.5721C4.26742 38.7148 4.40449 38.8186 4.56489 38.8606C4.7253 38.9027 4.8959 38.8795 5.03917 38.7963C7.68809 37.2578 10.5635 36.1439 13.5599 35.4955C13.7221 35.4602 13.8635 35.3621 13.9531 35.2229C14.0427 35.0837 14.0731 34.9147 14.0376 34.7532C14.0021 34.5916 13.9037 34.4507 13.7639 34.3615C13.6241 34.2723 13.4545 34.242 13.2923 34.2773C12.3194 34.4891 11.3616 34.7532 10.4212 35.0546L12.7821 21.9811L13.0172 20.6558C14.0176 15.0881 14.7354 10.9678 15.5557 7.951C17.0562 8.43179 18.1667 9.6948 19.1946 12.0564C18.4443 15.2949 17.7365 19.475 16.8562 24.7612L14.3927 39.2845V39.3119C14.3802 39.4066 14.1201 41.6063 15.1055 43.3451C15.9697 44.6565 17.0663 45.8003 18.3417 46.7206C16.9164 47.0715 15.4533 47.2472 13.9851 47.2437C10.9637 47.2684 7.99006 46.492 5.3693 44.9942ZM25.2344 47.7544C23.4421 47.7572 21.6812 47.2852 20.1324 46.3868C18.5546 45.473 17.206 44.214 16.1884 42.7049C15.4381 41.397 15.6182 39.6159 15.6357 39.4664L18.0591 25.1722L18.0941 24.9555C18.9895 19.5921 19.6948 15.3547 20.4625 12.1411C21.6605 7.12145 22.946 4.9965 24.9042 4.80469C25.1237 4.78227 25.345 4.78227 25.5645 4.80469C27.5227 4.9965 28.8157 7.12145 30.0062 12.1386C30.774 15.3572 31.4817 19.612 32.3796 24.9829L34.7455 38.9532C34.8548 39.5706 34.8834 40.1994 34.8305 40.8241C34.7934 41.4797 34.6079 42.1184 34.2878 42.6924C33.2708 44.2095 31.9181 45.4742 30.3338 46.3893C28.7856 47.2867 27.0256 47.7579 25.2344 47.7544ZM48.0431 42.7074L48.008 42.7447C47.9705 42.7896 44.054 47.2288 36.4811 47.2288C35.0121 47.2322 33.5482 47.0565 32.122 46.7056C33.3963 45.784 34.492 44.6394 35.3557 43.3277C35.7788 42.5933 36.0253 41.7714 36.076 40.9262C36.1385 40.1935 36.1057 39.4558 35.9785 38.7315L33.6451 24.9555L33.6126 24.7662C32.7297 19.475 32.0294 15.2774 31.2692 12.0414C32.2971 9.69729 33.42 8.4293 34.9206 7.95349C35.7434 10.9877 36.4786 15.1379 37.4715 20.748L37.6916 21.9935L40.055 35.0695C39.1121 34.7656 38.1518 34.5015 37.1764 34.2898C37.0961 34.2723 37.0131 34.2707 36.9322 34.2852C36.8513 34.2996 36.774 34.3298 36.7048 34.374C36.5651 34.4632 36.4666 34.6041 36.4311 34.7656C36.3956 34.9272 36.426 35.0961 36.5156 35.2353C36.6052 35.3746 36.7466 35.4726 36.9088 35.508C39.9027 36.1533 42.7763 37.2629 45.4246 38.7963C45.5203 38.8517 45.629 38.8809 45.7397 38.881C45.8771 38.8811 46.0108 38.836 46.1199 38.7528C46.2291 38.6696 46.3077 38.5529 46.3436 38.4207C46.3794 38.2886 46.3706 38.1483 46.3184 38.0217C46.2662 37.895 46.1735 37.789 46.0548 37.7201C44.5693 36.8604 43.0141 36.1263 41.4055 35.5254L38.9221 21.7644L38.702 20.5188C37.7166 14.9436 36.9838 10.8033 36.156 7.7243C36.2661 7.7243 36.3736 7.70936 36.4911 7.70936C41.3855 7.70936 42.701 13.576 45.5871 26.4278L48.6758 39.9272C48.6758 39.9447 49.0834 41.6835 48.0431 42.7074Z" fill="black"/>
<path d="M31.2967 33.1763C30.4453 32.9243 29.5757 32.7377 28.6957 32.6183C28.258 32.5535 27.7853 32.5012 27.2901 32.4613C26.795 32.4215 26.2898 32.3965 25.7896 32.3866C25.712 32.3866 25.6345 32.3866 25.557 32.3866C25.4795 32.3866 25.3869 32.3866 25.3069 32.3866H25.1668C24.5091 32.3866 23.8388 32.414 23.1836 32.4663C22.7009 32.5037 22.2282 32.556 21.7806 32.6208C20.8958 32.7378 20.0212 32.9218 19.1646 33.1713C19.0057 33.2192 18.8724 33.328 18.7941 33.4737C18.7158 33.6195 18.6988 33.7903 18.7469 33.9485C18.795 34.1068 18.9042 34.2395 19.0505 34.3175C19.1969 34.3955 19.3683 34.4124 19.5272 34.3645C20.3191 34.1314 21.1275 33.9582 21.9456 33.8464C22.3683 33.7866 22.8134 33.7368 23.2686 33.7019C23.8939 33.6496 24.5191 33.6247 25.1543 33.6247H25.3019C25.3744 33.6247 25.4444 33.6247 25.5145 33.6247H25.5745C25.6345 33.6247 25.6945 33.6247 25.7721 33.6247C26.2447 33.6247 26.7224 33.6596 27.1901 33.6969C27.6578 33.7343 28.1005 33.7816 28.5156 33.8439C29.3331 33.9546 30.1408 34.1278 30.9315 34.3621C30.9909 34.379 31.0524 34.3874 31.1141 34.387C31.2636 34.3862 31.4078 34.3321 31.5207 34.2345C31.6335 34.1368 31.7076 34.0022 31.7293 33.8549C31.7511 33.7076 31.7192 33.5574 31.6394 33.4316C31.5595 33.3057 31.4371 33.2125 31.2942 33.1688L31.2967 33.1763Z" fill="black"/>
</svg>
